<svg width="20" height="20" viewBox="0 0 20 20" fill="none" xmlns="http://www.w3.org/2000/svg">
<g clip-path="url(#clip0_95_3103)">
<path d="M15.8333 3.33341H15V1.66675H13.3333V3.33341H6.66667V1.66675H5V3.33341H4.16667C3.24167 3.33341 2.50833 4.08341 2.50833 5.00008L2.5 16.6667C2.5 17.5834 3.24167 18.3334 4.16667 18.3334H15.8333C16.75 18.3334 17.5 17.5834 17.5 16.6667V5.00008C17.5 4.08341 16.75 3.33341 15.8333 3.33341ZM15.8333 16.6667H4.16667V8.33342H15.8333V16.6667ZM15.8333 6.66675H4.16667V5.00008H15.8333V6.66675ZM10 10.8334H14.1667V15.0001H10V10.8334Z" fill="#AAAAAA"/>
</g>
<defs>
<clipPath id="clip0_95_3103">
<rect width="20" height="20" fill="white"/>
</clipPath>
</defs>
</svg>
