<svg width="20" height="20" viewBox="0 0 20 20" fill="none" xmlns="http://www.w3.org/2000/svg">
<rect width="20" height="20" fill="#E5E5E5"/>
<g id="Admin_Add Promotion Code (Fixed)" clip-path="url(#clip0_0_1)">
<rect width="1440" height="1024" transform="translate(-931 -476)" fill="#F3F4F7"/>
<g id="Frame 56892">
<g id="Frame 56913">
<rect x="-650.5" y="-355.5" width="1119" height="427" rx="7.5" fill="white"/>
<g id="Frame 56907">
<g id="Frame 56895">
<rect x="-168.5" y="-11.5" width="204" height="43" rx="7.5" fill="white"/>
<g id="schedule_black_24dp 1" clip-path="url(#clip1_0_1)">
<path id="Vector" d="M9.99102 1.66675C5.39102 1.66675 1.66602 5.40008 1.66602 10.0001C1.66602 14.6001 5.39102 18.3334 9.99102 18.3334C14.5993 18.3334 18.3327 14.6001 18.3327 10.0001C18.3327 5.40008 14.5993 1.66675 9.99102 1.66675ZM9.99935 16.6667C6.31602 16.6667 3.33268 13.6834 3.33268 10.0001C3.33268 6.31675 6.31602 3.33341 9.99935 3.33341C13.6827 3.33341 16.666 6.31675 16.666 10.0001C16.666 13.6834 13.6827 16.6667 9.99935 16.6667ZM10.416 5.83342H9.16602V10.8334L13.541 13.4584L14.166 12.4334L10.416 10.2084V5.83342Z" fill="#AAAAAA"/>
</g>
<rect x="-168.5" y="-11.5" width="204" height="43" rx="7.5" stroke="#CCD0D7"/>
</g>
</g>
<rect x="-650.5" y="-355.5" width="1119" height="427" rx="7.5" stroke="#E6E7EB"/>
</g>
</g>
</g>
<defs>
<clipPath id="clip0_0_1">
<rect width="1440" height="1024" fill="white" transform="translate(-931 -476)"/>
</clipPath>
<clipPath id="clip1_0_1">
<rect width="20" height="20" fill="white"/>
</clipPath>
</defs>
</svg>
