<svg width="150" height="150" viewBox="0 0 150 150" fill="none" xmlns="http://www.w3.org/2000/svg">
<path d="M81.25 12.6875C110.812 15.625 134.375 39.0625 137.188 68.75C138.011 76.9103 137.217 85.153 134.85 93.0058C132.483 100.859 128.589 108.167 123.393 114.513C118.197 120.859 111.8 126.117 104.568 129.986C97.3365 133.856 89.4125 136.26 81.25 137.062V124.562C104 121.875 121.875 103.813 124.75 81.0625C125.56 74.5449 125.076 67.9315 123.328 61.6008C121.579 55.2702 118.599 49.3464 114.559 44.1684C110.519 38.9904 105.497 34.6598 99.7817 31.4243C94.0662 28.1888 87.7689 26.1119 81.25 25.3125V12.6875ZM68.75 12.875V25.375C59.8125 26.625 51.375 30.25 44.375 35.875L35.4375 26.625C44.9169 18.8137 56.5207 14.0241 68.75 12.875ZM26.625 35.4375L35.5625 44.375C30.0249 51.4356 26.485 59.8538 25.3125 68.75H12.8125C14.0625 56.5 18.75 44.9375 26.625 35.4375ZM12.875 81.25H25.375C26.5 90.125 30.0625 98.5625 35.5625 105.625L26.6875 114.562C18.923 105.049 14.1205 93.4665 12.875 81.25ZM44.375 114.813C51.4375 120.313 59.875 123.875 68.75 125V137.5C56.5 136.187 44.875 131.25 35.4375 123.375L44.375 114.813ZM75 103.125L46.875 75H68.75V50H81.25V75H103.125L75 103.125Z" fill="white"/>
</svg>
