<svg width="14" height="13" viewBox="0 0 14 13" fill="none" xmlns="http://www.w3.org/2000/svg">
<path d="M3.696 6.448C3.16267 6.448 2.672 6.32 2.224 6.064C1.776 5.79733 1.41867 5.44 1.152 4.992C0.896 4.544 0.768 4.05333 0.768 3.52C0.768 2.98667 0.896 2.496 1.152 2.048C1.41867 1.58933 1.776 1.232 2.224 0.976C2.672 0.709333 3.16267 0.575999 3.696 0.575999C4.22933 0.575999 4.72 0.709333 5.168 0.976C5.62667 1.232 5.984 1.58933 6.24 2.048C6.50667 2.496 6.64 2.98667 6.64 3.52C6.64 4.05333 6.50667 4.544 6.24 4.992C5.984 5.44 5.62667 5.79733 5.168 6.064C4.72 6.32 4.22933 6.448 3.696 6.448ZM9.408 0.815999H10.992L4.8 12H3.216L9.408 0.815999ZM3.696 5.264C4.18667 5.264 4.592 5.09867 4.912 4.768C5.24267 4.43733 5.408 4.032 5.408 3.552C5.408 3.06133 5.24267 2.65067 4.912 2.32C4.592 1.98933 4.18667 1.824 3.696 1.824C3.20533 1.824 2.79467 1.98933 2.464 2.32C2.144 2.65067 1.984 3.06133 1.984 3.552C1.984 4.032 2.144 4.43733 2.464 4.768C2.79467 5.09867 3.20533 5.264 3.696 5.264ZM10.496 12.24C9.96267 12.24 9.472 12.112 9.024 11.856C8.576 11.5893 8.21867 11.232 7.952 10.784C7.696 10.336 7.568 9.84533 7.568 9.312C7.568 8.77867 7.696 8.288 7.952 7.84C8.21867 7.38133 8.576 7.024 9.024 6.768C9.472 6.50133 9.96267 6.368 10.496 6.368C11.0293 6.368 11.52 6.50133 11.968 6.768C12.4267 7.024 12.784 7.38133 13.04 7.84C13.3067 8.288 13.44 8.77867 13.44 9.312C13.44 9.84533 13.3067 10.336 13.04 10.784C12.784 11.232 12.4267 11.5893 11.968 11.856C11.52 12.112 11.0293 12.24 10.496 12.24ZM10.48 11.056C10.9707 11.056 11.3813 10.8907 11.712 10.56C12.0427 10.2293 12.208 9.824 12.208 9.344C12.208 8.85333 12.0427 8.44267 11.712 8.112C11.3813 7.78133 10.9707 7.616 10.48 7.616C10 7.616 9.59467 7.78133 9.264 8.112C8.93333 8.44267 8.768 8.85333 8.768 9.344C8.768 9.824 8.93333 10.2293 9.264 10.56C9.59467 10.8907 10 11.056 10.48 11.056Z" fill="#9AA1B0"/>
</svg>
