<svg width="150" height="150" viewBox="0 0 150 150" fill="none" xmlns="http://www.w3.org/2000/svg">
<path d="M62.4984 129.856C57.0585 128.622 51.8339 126.581 46.9984 123.8M87.4984 20.1438C99.9244 22.9817 111.019 29.9544 118.965 39.9201C126.911 49.8858 131.239 62.2541 131.239 75.0001C131.239 87.746 126.911 100.114 118.965 110.08C111.019 120.046 99.9244 127.018 87.4984 129.856M28.6172 106.831C25.2078 101.878 22.6184 96.408 20.9484 90.6313M19.5234 65.625C20.5234 59.6875 22.4484 54.0625 25.1484 48.9063L26.2047 47M43.1672 28.6188C49.015 24.5932 55.5754 21.717 62.4984 20.1438" stroke="white" stroke-width="12.5" stroke-linecap="round" stroke-linejoin="round"/>
<path d="M56.25 75L68.75 87.5L93.75 62.5" stroke="white" stroke-width="12.5" stroke-linecap="round" stroke-linejoin="round"/>
</svg>
