<svg width="150" height="150" viewBox="0 0 150 150" fill="none" xmlns="http://www.w3.org/2000/svg">
<path d="M81.25 12.6875V25.3125C108.687 28.6875 128.125 53.625 124.75 81.0625C121.875 103.813 104 121.875 81.25 124.562V137.062C115.625 133.625 140.625 103.125 137.188 68.75C134.375 39.0625 110.812 15.625 81.25 12.6875ZM68.75 12.875C56.5625 14.0625 44.9375 18.75 35.4375 26.625L44.375 35.875C51.375 30.25 59.8125 26.625 68.75 25.375V12.875ZM26.625 35.4375C18.8103 44.9209 14.0013 56.5193 12.8125 68.75H25.3125C26.5 59.875 30 51.4375 35.5625 44.375L26.625 35.4375ZM12.875 81.25C14.125 93.5 18.9375 105.062 26.6875 114.562L35.5625 105.625C30.0433 98.56 26.5247 90.1412 25.375 81.25H12.875ZM44.375 114.813L35.4375 123.375C44.9049 131.267 56.4954 136.181 68.75 137.5V125C59.8588 123.85 51.44 120.332 44.375 114.813ZM105.125 94.9375L79.4375 69.25C82 62.75 80.5625 55.125 75.1875 49.8125C69.5625 44.125 61.125 43 54.3125 46.125L66.4375 58.25L58 66.75L45.5625 54.5625C42.1875 61.375 43.75 69.8125 49.25 75.5C54.625 80.875 62.25 82.25 68.75 79.75L94.4375 105.375C95.5625 106.563 97.25 106.563 98.375 105.375L104.875 98.9375C106.25 97.8125 106.25 95.8125 105.125 94.9375Z" fill="white"/>
</svg>
